<mxfile host="65bd71144e">
    <diagram id="_AzRAp3ihFTzm5y9_Qqn" name="Page-1">
        <mxGraphModel dx="3128" dy="740" grid="1" gridSize="9" guides="1" tooltips="1" connect="1" arrows="1" fold="1" page="0" pageScale="1" pageWidth="850" pageHeight="1100" math="0" shadow="0">
            <root>
                <mxCell id="0"/>
                <mxCell id="1" parent="0"/>
                <mxCell id="37" value="Type" style="rounded=1;whiteSpace=wrap;html=1;fontSize=18;" parent="1" vertex="1">
                    <mxGeometry x="1190" y="396" width="120" height="60" as="geometry"/>
                </mxCell>
                <mxCell id="38" value="" style="rhombus;whiteSpace=wrap;html=1;fontSize=18;" parent="1" vertex="1">
                    <mxGeometry x="870" y="386" width="129" height="80" as="geometry"/>
                </mxCell>
                <mxCell id="39" value="" style="endArrow=none;html=1;entryX=0;entryY=0.5;entryDx=0;entryDy=0;exitX=0;exitY=0.5;exitDx=0;exitDy=0;fontSize=18;" parent="1" source="38" target="2" edge="1">
                    <mxGeometry width="50" height="50" relative="1" as="geometry">
                        <mxPoint x="198" y="221" as="sourcePoint"/>
                        <mxPoint x="248" y="171" as="targetPoint"/>
                    </mxGeometry>
                </mxCell>
                <mxCell id="40" value="" style="endArrow=none;html=1;entryX=1;entryY=0.5;entryDx=0;entryDy=0;exitX=0;exitY=0.5;exitDx=0;exitDy=0;fontSize=18;" parent="1" source="37" target="38" edge="1">
                    <mxGeometry width="50" height="50" relative="1" as="geometry">
                        <mxPoint x="1233" y="414" as="sourcePoint"/>
                        <mxPoint x="1053" y="396" as="targetPoint"/>
                    </mxGeometry>
                </mxCell>
                <mxCell id="43" value="n" style="text;html=1;strokeColor=none;fillColor=none;align=center;verticalAlign=middle;whiteSpace=wrap;rounded=0;fontSize=18;" parent="1" vertex="1">
                    <mxGeometry x="1242" y="809.5" width="60" height="43" as="geometry"/>
                </mxCell>
                <mxCell id="44" value="GenderStatus" style="ellipse;whiteSpace=wrap;html=1;fontSize=18;" parent="1" vertex="1">
                    <mxGeometry x="1404" y="333" width="135" height="80" as="geometry"/>
                </mxCell>
                <mxCell id="45" value="" style="endArrow=none;html=1;exitX=0;exitY=0.5;exitDx=0;exitDy=0;entryX=1;entryY=0.5;entryDx=0;entryDy=0;fontSize=18;" parent="1" source="44" target="37" edge="1">
                    <mxGeometry width="50" height="50" relative="1" as="geometry">
                        <mxPoint x="-36" y="221" as="sourcePoint"/>
                        <mxPoint x="1353" y="408" as="targetPoint"/>
                    </mxGeometry>
                </mxCell>
                <mxCell id="47" value="" style="endArrow=none;html=1;entryX=1;entryY=0.5;entryDx=0;entryDy=0;exitX=0;exitY=0.5;exitDx=0;exitDy=0;fontSize=18;" parent="1" source="156" target="37" edge="1">
                    <mxGeometry width="50" height="50" relative="1" as="geometry">
                        <mxPoint x="1395" y="481" as="sourcePoint"/>
                        <mxPoint x="14" y="171" as="targetPoint"/>
                    </mxGeometry>
                </mxCell>
                <mxCell id="48" value="OrderItem" style="rounded=1;whiteSpace=wrap;html=1;fontSize=18;" parent="1" vertex="1">
                    <mxGeometry x="1190" y="864" width="120" height="60" as="geometry"/>
                </mxCell>
                <mxCell id="49" value="pricing" style="ellipse;whiteSpace=wrap;html=1;fontSize=18;" parent="1" vertex="1">
                    <mxGeometry x="1602" y="789.5" width="120" height="80" as="geometry"/>
                </mxCell>
                <mxCell id="50" value="quantity" style="ellipse;whiteSpace=wrap;html=1;fontSize=18;" parent="1" vertex="1">
                    <mxGeometry x="1593" y="904" width="120" height="80" as="geometry"/>
                </mxCell>
                <mxCell id="53" style="rounded=0;orthogonalLoop=1;jettySize=auto;html=1;endArrow=none;endFill=0;exitX=0.5;exitY=0;exitDx=0;exitDy=0;fontSize=18;" parent="1" source="127" target="37" edge="1">
                    <mxGeometry relative="1" as="geometry">
                        <mxPoint x="954" y="558" as="sourcePoint"/>
                        <mxPoint x="-56" y="610" as="targetPoint"/>
                    </mxGeometry>
                </mxCell>
                <mxCell id="54" value="n" style="text;html=1;align=center;verticalAlign=middle;resizable=0;points=[];autosize=1;strokeColor=none;fontSize=18;" parent="1" vertex="1">
                    <mxGeometry x="1149" y="394" width="27" height="27" as="geometry"/>
                </mxCell>
                <mxCell id="55" value="n" style="text;html=1;align=center;verticalAlign=middle;resizable=0;points=[];autosize=1;strokeColor=none;fontSize=18;" parent="1" vertex="1">
                    <mxGeometry x="44" y="413" width="27" height="27" as="geometry"/>
                </mxCell>
                <mxCell id="57" value="" style="endArrow=none;html=1;entryX=0;entryY=0.5;entryDx=0;entryDy=0;fontSize=18;" parent="1" source="68" target="145" edge="1">
                    <mxGeometry width="50" height="50" relative="1" as="geometry">
                        <mxPoint x="-48" y="855" as="sourcePoint"/>
                        <mxPoint x="-103" y="666" as="targetPoint"/>
                    </mxGeometry>
                </mxCell>
                <mxCell id="59" value="Order" style="rounded=1;whiteSpace=wrap;html=1;fontSize=18;" parent="1" vertex="1">
                    <mxGeometry x="-63" y="862.5" width="120" height="60" as="geometry"/>
                </mxCell>
                <mxCell id="60" value="time" style="ellipse;whiteSpace=wrap;html=1;fontSize=18;" parent="1" vertex="1">
                    <mxGeometry x="-360" y="954" width="120" height="80" as="geometry"/>
                </mxCell>
                <mxCell id="61" value="address" style="ellipse;whiteSpace=wrap;html=1;fontSize=16;" parent="1" vertex="1">
                    <mxGeometry x="-396" y="844" width="120" height="80" as="geometry"/>
                </mxCell>
                <mxCell id="62" value="phone_number" style="ellipse;whiteSpace=wrap;html=1;fontSize=18;" parent="1" vertex="1">
                    <mxGeometry x="-370" y="738" width="120" height="80" as="geometry"/>
                </mxCell>
                <mxCell id="63" value="Product_name" style="ellipse;whiteSpace=wrap;html=1;fontSize=18;" parent="1" vertex="1">
                    <mxGeometry x="-261" y="639" width="120" height="80" as="geometry"/>
                </mxCell>
                <mxCell id="64" style="rounded=0;orthogonalLoop=1;jettySize=auto;html=1;entryX=0.5;entryY=1;entryDx=0;entryDy=0;endArrow=none;endFill=0;exitX=0;exitY=0.5;exitDx=0;exitDy=0;fontSize=18;" parent="1" source="59" target="63" edge="1">
                    <mxGeometry relative="1" as="geometry">
                        <mxPoint x="-50" y="489.5" as="sourcePoint"/>
                        <mxPoint x="-120" y="539.5" as="targetPoint"/>
                    </mxGeometry>
                </mxCell>
                <mxCell id="65" style="rounded=0;orthogonalLoop=1;jettySize=auto;html=1;entryX=1;entryY=0.5;entryDx=0;entryDy=0;endArrow=none;endFill=0;exitX=0;exitY=0.5;exitDx=0;exitDy=0;fontSize=18;" parent="1" source="59" target="62" edge="1">
                    <mxGeometry relative="1" as="geometry">
                        <mxPoint x="-60" y="849.5" as="sourcePoint"/>
                        <mxPoint x="-120" y="679.5" as="targetPoint"/>
                    </mxGeometry>
                </mxCell>
                <mxCell id="66" style="rounded=0;orthogonalLoop=1;jettySize=auto;html=1;entryX=1;entryY=0.5;entryDx=0;entryDy=0;endArrow=none;endFill=0;exitX=0;exitY=0.5;exitDx=0;exitDy=0;fontSize=18;" parent="1" source="59" target="61" edge="1">
                    <mxGeometry relative="1" as="geometry">
                        <mxPoint x="-50" y="859.5" as="sourcePoint"/>
                        <mxPoint x="-140" y="799.5" as="targetPoint"/>
                    </mxGeometry>
                </mxCell>
                <mxCell id="67" style="rounded=0;orthogonalLoop=1;jettySize=auto;html=1;entryX=1;entryY=0.5;entryDx=0;entryDy=0;endArrow=none;endFill=0;exitX=0;exitY=0.5;exitDx=0;exitDy=0;fontSize=18;" parent="1" source="59" target="60" edge="1">
                    <mxGeometry relative="1" as="geometry">
                        <mxPoint x="-50" y="859.5" as="sourcePoint"/>
                        <mxPoint x="-140" y="919.5" as="targetPoint"/>
                    </mxGeometry>
                </mxCell>
                <mxCell id="68" value="" style="rhombus;whiteSpace=wrap;html=1;fontSize=18;" parent="1" vertex="1">
                    <mxGeometry x="260" y="919" width="150" height="80" as="geometry"/>
                </mxCell>
                <mxCell id="69" style="rounded=0;orthogonalLoop=1;jettySize=auto;html=1;endArrow=none;endFill=0;exitX=1;exitY=0.5;exitDx=0;exitDy=0;entryX=0;entryY=0;entryDx=0;entryDy=0;fontSize=18;" parent="1" source="59" target="68" edge="1">
                    <mxGeometry relative="1" as="geometry">
                        <mxPoint x="604" y="1053" as="sourcePoint"/>
                        <mxPoint x="806" y="1104.9999999999995" as="targetPoint"/>
                    </mxGeometry>
                </mxCell>
                <mxCell id="70" value="1" style="text;html=1;align=center;verticalAlign=middle;resizable=0;points=[];autosize=1;strokeColor=none;fontSize=18;" parent="1" vertex="1">
                    <mxGeometry x="545" y="715" width="27" height="27" as="geometry"/>
                </mxCell>
                <mxCell id="72" value="User" style="rounded=1;whiteSpace=wrap;html=1;fontSize=18;" parent="1" vertex="1">
                    <mxGeometry x="609" y="649.5" width="120" height="60" as="geometry"/>
                </mxCell>
                <mxCell id="73" value="mail" style="ellipse;whiteSpace=wrap;html=1;fontSize=18;" parent="1" vertex="1">
                    <mxGeometry x="855" y="801" width="120" height="80" as="geometry"/>
                </mxCell>
                <mxCell id="74" value="password" style="ellipse;whiteSpace=wrap;html=1;fontSize=18;" parent="1" vertex="1">
                    <mxGeometry x="855" y="709.5" width="120" height="80" as="geometry"/>
                </mxCell>
                <mxCell id="75" value="&lt;b style=&quot;font-size: 18px;&quot;&gt;&lt;u style=&quot;font-size: 18px;&quot;&gt;user_id&lt;/u&gt;&lt;/b&gt;" style="ellipse;whiteSpace=wrap;html=1;fontSize=18;" parent="1" vertex="1">
                    <mxGeometry x="855" y="621" width="120" height="80" as="geometry"/>
                </mxCell>
                <mxCell id="76" value="name" style="ellipse;whiteSpace=wrap;html=1;fontSize=18;" parent="1" vertex="1">
                    <mxGeometry x="846" y="521" width="120" height="80" as="geometry"/>
                </mxCell>
                <mxCell id="77" style="rounded=0;orthogonalLoop=1;jettySize=auto;html=1;exitX=0;exitY=0.5;exitDx=0;exitDy=0;entryX=1;entryY=0.5;entryDx=0;entryDy=0;endArrow=none;endFill=0;fontSize=18;" parent="1" source="76" target="72" edge="1">
                    <mxGeometry relative="1" as="geometry">
                        <mxPoint x="719" y="63" as="sourcePoint"/>
                        <mxPoint x="639" y="123" as="targetPoint"/>
                    </mxGeometry>
                </mxCell>
                <mxCell id="78" style="rounded=0;orthogonalLoop=1;jettySize=auto;html=1;exitX=0;exitY=0.5;exitDx=0;exitDy=0;entryX=1;entryY=0.5;entryDx=0;entryDy=0;endArrow=none;endFill=0;fontSize=18;" parent="1" source="75" target="72" edge="1">
                    <mxGeometry relative="1" as="geometry">
                        <mxPoint x="719" y="343" as="sourcePoint"/>
                        <mxPoint x="639" y="473" as="targetPoint"/>
                    </mxGeometry>
                </mxCell>
                <mxCell id="79" style="rounded=0;orthogonalLoop=1;jettySize=auto;html=1;exitX=0;exitY=0.5;exitDx=0;exitDy=0;endArrow=none;endFill=0;entryX=1;entryY=0.5;entryDx=0;entryDy=0;fontSize=18;" parent="1" source="73" target="72" edge="1">
                    <mxGeometry relative="1" as="geometry">
                        <mxPoint x="729" y="413" as="sourcePoint"/>
                        <mxPoint x="629" y="463" as="targetPoint"/>
                    </mxGeometry>
                </mxCell>
                <mxCell id="80" style="rounded=0;orthogonalLoop=1;jettySize=auto;html=1;exitX=0;exitY=0.5;exitDx=0;exitDy=0;endArrow=none;endFill=0;entryX=1;entryY=0.5;entryDx=0;entryDy=0;fontSize=18;" parent="1" source="74" target="72" edge="1">
                    <mxGeometry relative="1" as="geometry">
                        <mxPoint x="739" y="423" as="sourcePoint"/>
                        <mxPoint x="629" y="463" as="targetPoint"/>
                    </mxGeometry>
                </mxCell>
                <mxCell id="81" value="Buying" style="rhombus;whiteSpace=wrap;html=1;fontSize=18;" parent="1" vertex="1">
                    <mxGeometry x="288" y="738" width="150" height="80" as="geometry"/>
                </mxCell>
                <mxCell id="82" style="rounded=0;orthogonalLoop=1;jettySize=auto;html=1;endArrow=none;endFill=0;exitX=1;exitY=0.5;exitDx=0;exitDy=0;entryX=0;entryY=1;entryDx=0;entryDy=0;fontSize=18;" parent="1" source="59" target="81" edge="1">
                    <mxGeometry relative="1" as="geometry">
                        <mxPoint x="589" y="1248" as="sourcePoint"/>
                        <mxPoint x="539" y="1108" as="targetPoint"/>
                    </mxGeometry>
                </mxCell>
                <mxCell id="83" style="rounded=0;orthogonalLoop=1;jettySize=auto;html=1;endArrow=none;endFill=0;exitX=0;exitY=0.5;exitDx=0;exitDy=0;entryX=1;entryY=0;entryDx=0;entryDy=0;fontSize=18;" parent="1" source="72" target="81" edge="1">
                    <mxGeometry relative="1" as="geometry">
                        <mxPoint x="599" y="1258" as="sourcePoint"/>
                        <mxPoint x="776.4999999999998" y="1128" as="targetPoint"/>
                    </mxGeometry>
                </mxCell>
                <mxCell id="85" value="n" style="text;html=1;align=center;verticalAlign=middle;resizable=0;points=[];autosize=1;strokeColor=none;fontSize=18;" parent="1" vertex="1">
                    <mxGeometry x="114" y="839.5" width="27" height="27" as="geometry"/>
                </mxCell>
                <mxCell id="87" style="rounded=0;orthogonalLoop=1;jettySize=auto;html=1;endArrow=none;endFill=0;exitX=0;exitY=0.5;exitDx=0;exitDy=0;entryX=1;entryY=1;entryDx=0;entryDy=0;fontSize=18;" parent="1" source="72" target="98" edge="1">
                    <mxGeometry relative="1" as="geometry">
                        <mxPoint x="-1161" y="668" as="sourcePoint"/>
                        <mxPoint x="-1035.5" y="918" as="targetPoint"/>
                    </mxGeometry>
                </mxCell>
                <mxCell id="100" value="1" style="text;html=1;align=center;verticalAlign=middle;resizable=0;points=[];autosize=1;strokeColor=none;fontSize=18;" parent="1" vertex="1">
                    <mxGeometry x="1140" y="878" width="27" height="27" as="geometry"/>
                </mxCell>
                <mxCell id="89" value="Rate" style="rounded=1;whiteSpace=wrap;html=1;fontSize=18;" parent="1" vertex="1">
                    <mxGeometry x="-88" y="399" width="120" height="60" as="geometry"/>
                </mxCell>
                <mxCell id="90" value="time" style="ellipse;whiteSpace=wrap;html=1;fontSize=18;" parent="1" vertex="1">
                    <mxGeometry x="-315" y="394" width="120" height="80" as="geometry"/>
                </mxCell>
                <mxCell id="91" value="rate-number" style="ellipse;whiteSpace=wrap;html=1;fontSize=18;" parent="1" vertex="1">
                    <mxGeometry x="-315" y="487" width="120" height="80" as="geometry"/>
                </mxCell>
                <mxCell id="93" value="star" style="ellipse;whiteSpace=wrap;html=1;fontSize=18;" parent="1" vertex="1">
                    <mxGeometry x="-324" y="279" width="120" height="80" as="geometry"/>
                </mxCell>
                <mxCell id="94" style="rounded=0;orthogonalLoop=1;jettySize=auto;html=1;exitX=0;exitY=0.5;exitDx=0;exitDy=0;endArrow=none;endFill=0;entryX=0.997;entryY=0.728;entryDx=0;entryDy=0;entryPerimeter=0;fontSize=18;" parent="1" source="89" target="93" edge="1">
                    <mxGeometry relative="1" as="geometry">
                        <mxPoint x="-329" y="147" as="sourcePoint"/>
                        <mxPoint x="-409" y="17" as="targetPoint"/>
                    </mxGeometry>
                </mxCell>
                <mxCell id="96" style="rounded=0;orthogonalLoop=1;jettySize=auto;html=1;exitX=0;exitY=0.5;exitDx=0;exitDy=0;endArrow=none;endFill=0;entryX=1;entryY=0.5;entryDx=0;entryDy=0;fontSize=18;" parent="1" source="89" target="91" edge="1">
                    <mxGeometry relative="1" as="geometry">
                        <mxPoint x="-409" y="457" as="sourcePoint"/>
                        <mxPoint x="-329" y="427" as="targetPoint"/>
                    </mxGeometry>
                </mxCell>
                <mxCell id="97" style="rounded=0;orthogonalLoop=1;jettySize=auto;html=1;endArrow=none;endFill=0;entryX=1;entryY=0.5;entryDx=0;entryDy=0;exitX=0;exitY=0.5;exitDx=0;exitDy=0;fontSize=18;" parent="1" source="89" target="90" edge="1">
                    <mxGeometry relative="1" as="geometry">
                        <mxPoint x="-547" y="406" as="sourcePoint"/>
                        <mxPoint x="-306" y="562" as="targetPoint"/>
                    </mxGeometry>
                </mxCell>
                <mxCell id="98" value="Rating" style="rhombus;whiteSpace=wrap;html=1;fontSize=18;" parent="1" vertex="1">
                    <mxGeometry x="207" y="505" width="150" height="80" as="geometry"/>
                </mxCell>
                <mxCell id="99" style="rounded=0;orthogonalLoop=1;jettySize=auto;html=1;endArrow=none;endFill=0;entryX=1;entryY=0.5;entryDx=0;entryDy=0;exitX=0;exitY=0;exitDx=0;exitDy=0;fontSize=18;" parent="1" source="98" target="89" edge="1">
                    <mxGeometry relative="1" as="geometry">
                        <mxPoint x="-840" y="694" as="sourcePoint"/>
                        <mxPoint x="-841" y="689" as="targetPoint"/>
                    </mxGeometry>
                </mxCell>
                <mxCell id="102" value="1&lt;span style=&quot;color: rgba(0, 0, 0, 0); font-family: monospace; font-size: 18px;&quot;&gt;%3CmxGraphModel%3E%3Croot%3E%3CmxCell%20id%3D%220%22%2F%3E%3CmxCell%20id%3D%221%22%20parent%3D%220%22%2F%3E%3CmxCell%20id%3D%222%22%20value%3D%22Rating%22%20style%3D%22rhombus%3BwhiteSpace%3Dwrap%3Bhtml%3D1%3B%22%20vertex%3D%221%22%20parent%3D%221%22%3E%3CmxGeometry%20x%3D%2272%22%20y%3D%22651%22%20width%3D%22150%22%20height%3D%2280%22%20as%3D%22geometry%22%2F%3E%3C%2FmxCell%3E%3C%2Froot%3E%3C%2FmxGraphModel%3E&lt;/span&gt;" style="text;html=1;align=center;verticalAlign=middle;resizable=0;points=[];autosize=1;strokeColor=none;fontSize=18;" parent="1" vertex="1">
                    <mxGeometry x="-1705" y="613" width="4500" height="27" as="geometry"/>
                </mxCell>
                <mxCell id="108" value="" style="ellipse;whiteSpace=wrap;html=1;fontSize=18;" parent="1" vertex="1">
                    <mxGeometry x="953" y="117" width="144" height="96" as="geometry"/>
                </mxCell>
                <mxCell id="24" value="" style="endArrow=none;html=1;entryX=0;entryY=0.5;entryDx=0;entryDy=0;exitX=1;exitY=0.5;exitDx=0;exitDy=0;fontSize=18;" parent="1" source="21" target="23" edge="1">
                    <mxGeometry width="50" height="50" relative="1" as="geometry">
                        <mxPoint x="575" y="376" as="sourcePoint"/>
                        <mxPoint x="953" y="165" as="targetPoint"/>
                    </mxGeometry>
                </mxCell>
                <mxCell id="2" value="Product" style="rounded=1;whiteSpace=wrap;html=1;fontSize=18;" parent="1" vertex="1">
                    <mxGeometry x="480" y="396" width="120" height="60" as="geometry"/>
                </mxCell>
                <mxCell id="3" value="Product_name" style="ellipse;whiteSpace=wrap;html=1;fontSize=18;" parent="1" vertex="1">
                    <mxGeometry x="207" y="223" width="120" height="80" as="geometry"/>
                </mxCell>
                <mxCell id="4" value="&#10;&#10;&lt;span style=&quot;color: rgb(240, 240, 240); font-family: helvetica; font-size: 18px; font-style: normal; font-weight: 400; letter-spacing: normal; text-align: center; text-indent: 0px; text-transform: none; word-spacing: 0px; background-color: rgb(42, 42, 42); display: inline; float: none;&quot;&gt;description&lt;/span&gt;&#10;&#10;" style="ellipse;whiteSpace=wrap;html=1;fontSize=18;" parent="1" vertex="1">
                    <mxGeometry x="275" y="97" width="120" height="80" as="geometry"/>
                </mxCell>
                <mxCell id="5" value="pricing" style="ellipse;whiteSpace=wrap;html=1;fontSize=18;" parent="1" vertex="1">
                    <mxGeometry x="415" y="63" width="120" height="80" as="geometry"/>
                </mxCell>
                <mxCell id="8" value="rating" style="ellipse;whiteSpace=wrap;html=1;fontSize=18;" parent="1" vertex="1">
                    <mxGeometry x="568" y="63" width="120" height="80" as="geometry"/>
                </mxCell>
                <mxCell id="9" value="" style="endArrow=none;html=1;entryX=0.5;entryY=1;entryDx=0;entryDy=0;exitX=0.5;exitY=0;exitDx=0;exitDy=0;fontSize=18;" parent="1" source="2" target="8" edge="1">
                    <mxGeometry width="50" height="50" relative="1" as="geometry">
                        <mxPoint x="540" y="342" as="sourcePoint"/>
                        <mxPoint x="590" y="292" as="targetPoint"/>
                    </mxGeometry>
                </mxCell>
                <mxCell id="10" value="" style="endArrow=none;html=1;entryX=0.5;entryY=1;entryDx=0;entryDy=0;exitX=0.5;exitY=0;exitDx=0;exitDy=0;fontSize=18;" parent="1" source="2" target="5" edge="1">
                    <mxGeometry width="50" height="50" relative="1" as="geometry">
                        <mxPoint x="540" y="342" as="sourcePoint"/>
                        <mxPoint x="590" y="292" as="targetPoint"/>
                    </mxGeometry>
                </mxCell>
                <mxCell id="11" value="" style="endArrow=none;html=1;entryX=0.5;entryY=1;entryDx=0;entryDy=0;exitX=0.5;exitY=0;exitDx=0;exitDy=0;fontSize=18;" parent="1" source="2" target="4" edge="1">
                    <mxGeometry width="50" height="50" relative="1" as="geometry">
                        <mxPoint x="540" y="342" as="sourcePoint"/>
                        <mxPoint x="590" y="292" as="targetPoint"/>
                    </mxGeometry>
                </mxCell>
                <mxCell id="12" value="" style="endArrow=none;html=1;entryX=1;entryY=0.5;entryDx=0;entryDy=0;exitX=0.5;exitY=0;exitDx=0;exitDy=0;fontSize=18;" parent="1" source="2" target="3" edge="1">
                    <mxGeometry width="50" height="50" relative="1" as="geometry">
                        <mxPoint x="540" y="342" as="sourcePoint"/>
                        <mxPoint x="590" y="292" as="targetPoint"/>
                    </mxGeometry>
                </mxCell>
                <mxCell id="20" value="" style="endArrow=none;html=1;exitX=0.5;exitY=0;exitDx=0;exitDy=0;fontSize=18;" parent="1" source="2" target="21" edge="1">
                    <mxGeometry width="50" height="50" relative="1" as="geometry">
                        <mxPoint x="568" y="333" as="sourcePoint"/>
                        <mxPoint x="991" y="252" as="targetPoint"/>
                    </mxGeometry>
                </mxCell>
                <mxCell id="23" value="Size" style="ellipse;whiteSpace=wrap;html=1;fontSize=18;" parent="1" vertex="1">
                    <mxGeometry x="965" y="125" width="120" height="80" as="geometry"/>
                </mxCell>
                <mxCell id="107" value="" style="group;fontSize=18;" parent="1" vertex="1" connectable="0">
                    <mxGeometry x="710" y="140" width="139" height="98" as="geometry"/>
                </mxCell>
                <mxCell id="105" value="" style="ellipse;whiteSpace=wrap;html=1;fontSize=18;" parent="107" vertex="1">
                    <mxGeometry width="139" height="98" as="geometry"/>
                </mxCell>
                <mxCell id="21" value="Color" style="ellipse;whiteSpace=wrap;html=1;fontSize=18;" parent="107" vertex="1">
                    <mxGeometry x="9.5" y="9" width="120" height="80" as="geometry"/>
                </mxCell>
                <mxCell id="42" value="n" style="text;html=1;strokeColor=none;fillColor=none;align=center;verticalAlign=middle;whiteSpace=wrap;rounded=0;fontSize=18;" parent="1" vertex="1">
                    <mxGeometry x="615" y="394" width="60" height="30" as="geometry"/>
                </mxCell>
                <mxCell id="112" value="&lt;u style=&quot;font-size: 18px;&quot;&gt;Product_ID&lt;/u&gt;" style="ellipse;whiteSpace=wrap;html=1;fontSize=18;" parent="1" vertex="1">
                    <mxGeometry x="155" y="312" width="120" height="80" as="geometry"/>
                </mxCell>
                <mxCell id="113" value="" style="endArrow=none;html=1;entryX=1;entryY=0.5;entryDx=0;entryDy=0;exitX=0.5;exitY=0;exitDx=0;exitDy=0;fontSize=18;" parent="1" source="2" target="112" edge="1">
                    <mxGeometry width="50" height="50" relative="1" as="geometry">
                        <mxPoint x="577" y="331" as="sourcePoint"/>
                        <mxPoint x="303" y="322" as="targetPoint"/>
                    </mxGeometry>
                </mxCell>
                <mxCell id="114" value="" style="endArrow=none;html=1;exitX=0.55;exitY=0.988;exitDx=0;exitDy=0;fontSize=18;exitPerimeter=0;" parent="1" source="108" target="115" edge="1">
                    <mxGeometry width="50" height="50" relative="1" as="geometry">
                        <mxPoint x="1018" y="372" as="sourcePoint"/>
                        <mxPoint x="1180" y="122" as="targetPoint"/>
                    </mxGeometry>
                </mxCell>
                <mxCell id="115" value="quantity" style="ellipse;whiteSpace=wrap;html=1;fontSize=18;" parent="1" vertex="1">
                    <mxGeometry x="1008" y="261" width="120" height="80" as="geometry"/>
                </mxCell>
                <mxCell id="117" value="" style="endArrow=none;html=1;exitX=1;exitY=0;exitDx=0;exitDy=0;fontSize=18;" parent="1" source="167" edge="1">
                    <mxGeometry width="50" height="50" relative="1" as="geometry">
                        <mxPoint x="-185.57359312880726" y="1064.7157287525379" as="sourcePoint"/>
                        <mxPoint x="-63" y="892.5" as="targetPoint"/>
                    </mxGeometry>
                </mxCell>
                <mxCell id="127" value="Picking" style="rhombus;whiteSpace=wrap;html=1;fontSize=18;" parent="1" vertex="1">
                    <mxGeometry x="1175" y="585" width="150" height="80" as="geometry"/>
                </mxCell>
                <mxCell id="128" value="" style="endArrow=none;html=1;entryX=0.5;entryY=1;entryDx=0;entryDy=0;exitX=0.5;exitY=0;exitDx=0;exitDy=0;fontSize=18;" parent="1" source="48" target="127" edge="1">
                    <mxGeometry width="50" height="50" relative="1" as="geometry">
                        <mxPoint x="360" y="680" as="sourcePoint"/>
                        <mxPoint x="410" y="630" as="targetPoint"/>
                    </mxGeometry>
                </mxCell>
                <mxCell id="133" value="1" style="text;html=1;strokeColor=none;fillColor=none;align=center;verticalAlign=middle;whiteSpace=wrap;rounded=0;fontSize=18;" parent="1" vertex="1">
                    <mxGeometry x="1250" y="481" width="60" height="30" as="geometry"/>
                </mxCell>
                <mxCell id="134" value="" style="endArrow=none;html=1;exitX=0;exitY=0.5;exitDx=0;exitDy=0;entryX=1;entryY=0.5;entryDx=0;entryDy=0;fontSize=18;" parent="1" source="49" target="48" edge="1">
                    <mxGeometry width="50" height="50" relative="1" as="geometry">
                        <mxPoint x="1017" y="1092" as="sourcePoint"/>
                        <mxPoint x="1287" y="896" as="targetPoint"/>
                    </mxGeometry>
                </mxCell>
                <mxCell id="135" value="" style="endArrow=none;html=1;exitX=0;exitY=0.5;exitDx=0;exitDy=0;entryX=1;entryY=0.5;entryDx=0;entryDy=0;fontSize=18;" parent="1" source="50" target="48" edge="1">
                    <mxGeometry width="50" height="50" relative="1" as="geometry">
                        <mxPoint x="1114" y="800" as="sourcePoint"/>
                        <mxPoint x="1278" y="891" as="targetPoint"/>
                    </mxGeometry>
                </mxCell>
                <mxCell id="144" value="n" style="text;html=1;align=center;verticalAlign=middle;resizable=0;points=[];autosize=1;strokeColor=none;fontSize=18;" parent="1" vertex="1">
                    <mxGeometry x="550" y="1030" width="27" height="27" as="geometry"/>
                </mxCell>
                <mxCell id="145" value="Cart" style="rounded=1;whiteSpace=wrap;html=1;fontSize=18;" parent="1" vertex="1">
                    <mxGeometry x="609" y="999" width="120" height="60" as="geometry"/>
                </mxCell>
                <mxCell id="147" value="Have" style="rhombus;whiteSpace=wrap;html=1;fontSize=18;" parent="1" vertex="1">
                    <mxGeometry x="594" y="801" width="150" height="80" as="geometry"/>
                </mxCell>
                <mxCell id="148" value="" style="endArrow=none;html=1;exitX=0.5;exitY=1;exitDx=0;exitDy=0;entryX=0.5;entryY=0;entryDx=0;entryDy=0;fontSize=18;" parent="1" source="147" target="145" edge="1">
                    <mxGeometry width="50" height="50" relative="1" as="geometry">
                        <mxPoint x="678" y="718.5" as="sourcePoint"/>
                        <mxPoint x="678" y="810" as="targetPoint"/>
                    </mxGeometry>
                </mxCell>
                <mxCell id="150" value="" style="endArrow=none;html=1;exitX=1;exitY=0;exitDx=0;exitDy=0;entryX=0;entryY=0.5;entryDx=0;entryDy=0;fontSize=18;" parent="1" source="151" target="48" edge="1">
                    <mxGeometry width="50" height="50" relative="1" as="geometry">
                        <mxPoint x="624" y="886.5" as="sourcePoint"/>
                        <mxPoint x="1098" y="918" as="targetPoint"/>
                    </mxGeometry>
                </mxCell>
                <mxCell id="151" value="Add" style="rhombus;whiteSpace=wrap;html=1;fontSize=18;" parent="1" vertex="1">
                    <mxGeometry x="918" y="927" width="150" height="80" as="geometry"/>
                </mxCell>
                <mxCell id="152" style="rounded=0;orthogonalLoop=1;jettySize=auto;html=1;endArrow=none;endFill=0;exitX=1;exitY=0.5;exitDx=0;exitDy=0;entryX=0;entryY=1;entryDx=0;entryDy=0;fontSize=18;" parent="1" source="145" target="151" edge="1">
                    <mxGeometry relative="1" as="geometry">
                        <mxPoint x="729" y="1026" as="sourcePoint"/>
                        <mxPoint x="1478" y="1136.4999999999995" as="targetPoint"/>
                    </mxGeometry>
                </mxCell>
                <mxCell id="153" value="n" style="text;html=1;strokeColor=none;fillColor=none;align=center;verticalAlign=middle;whiteSpace=wrap;rounded=0;fontSize=18;" parent="1" vertex="1">
                    <mxGeometry x="738" y="1026" width="60" height="43" as="geometry"/>
                </mxCell>
                <mxCell id="154" value="1" style="text;html=1;align=center;verticalAlign=middle;resizable=0;points=[];autosize=1;strokeColor=none;fontSize=18;" parent="1" vertex="1">
                    <mxGeometry x="69" y="916" width="27" height="27" as="geometry"/>
                </mxCell>
                <mxCell id="156" value="Type" style="ellipse;shape=doubleEllipse;margin=3;whiteSpace=wrap;html=1;align=center;fontSize=18;" parent="1" vertex="1">
                    <mxGeometry x="1404" y="450" width="126" height="85" as="geometry"/>
                </mxCell>
                <mxCell id="157" value="Color" style="ellipse;whiteSpace=wrap;html=1;fontSize=18;" parent="1" vertex="1">
                    <mxGeometry x="1575" y="1017" width="120" height="80" as="geometry"/>
                </mxCell>
                <mxCell id="158" value="Size" style="ellipse;whiteSpace=wrap;html=1;fontSize=18;" parent="1" vertex="1">
                    <mxGeometry x="1602" y="675" width="120" height="80" as="geometry"/>
                </mxCell>
                <mxCell id="159" value="" style="endArrow=none;html=1;exitX=0;exitY=0.5;exitDx=0;exitDy=0;entryX=1;entryY=0.5;entryDx=0;entryDy=0;fontSize=18;" parent="1" source="158" target="48" edge="1">
                    <mxGeometry width="50" height="50" relative="1" as="geometry">
                        <mxPoint x="1611" y="838.5" as="sourcePoint"/>
                        <mxPoint x="1319" y="903" as="targetPoint"/>
                    </mxGeometry>
                </mxCell>
                <mxCell id="160" value="" style="endArrow=none;html=1;exitX=0;exitY=0.5;exitDx=0;exitDy=0;entryX=1;entryY=0.5;entryDx=0;entryDy=0;fontSize=18;" parent="1" source="157" target="48" edge="1">
                    <mxGeometry width="50" height="50" relative="1" as="geometry">
                        <mxPoint x="1620" y="847.5" as="sourcePoint"/>
                        <mxPoint x="1328" y="912" as="targetPoint"/>
                    </mxGeometry>
                </mxCell>
                <mxCell id="161" value="OrderItemID" style="ellipse;whiteSpace=wrap;html=1;align=center;fontStyle=4;fontSize=18;" parent="1" vertex="1">
                    <mxGeometry x="1566" y="1107" width="120" height="82" as="geometry"/>
                </mxCell>
                <mxCell id="162" value="" style="endArrow=none;html=1;exitX=0;exitY=0.5;exitDx=0;exitDy=0;entryX=1;entryY=0.5;entryDx=0;entryDy=0;fontSize=18;" parent="1" source="161" target="48" edge="1">
                    <mxGeometry width="50" height="50" relative="1" as="geometry">
                        <mxPoint x="1584" y="1066" as="sourcePoint"/>
                        <mxPoint x="1319" y="903" as="targetPoint"/>
                    </mxGeometry>
                </mxCell>
                <mxCell id="163" value="totalPrice" style="ellipse;whiteSpace=wrap;html=1;fontSize=18;" parent="1" vertex="1">
                    <mxGeometry x="609" y="1125" width="120" height="80" as="geometry"/>
                </mxCell>
                <mxCell id="164" value="" style="endArrow=none;html=1;exitX=0.5;exitY=1;exitDx=0;exitDy=0;entryX=0.5;entryY=0;entryDx=0;entryDy=0;fontSize=18;" parent="1" source="145" target="163" edge="1">
                    <mxGeometry width="50" height="50" relative="1" as="geometry">
                        <mxPoint x="678" y="890" as="sourcePoint"/>
                        <mxPoint x="678" y="1008" as="targetPoint"/>
                    </mxGeometry>
                </mxCell>
                <mxCell id="166" value="" style="endArrow=none;html=1;exitX=0.5;exitY=1;exitDx=0;exitDy=0;entryX=0.5;entryY=0;entryDx=0;entryDy=0;fontSize=18;" parent="1" source="72" target="147" edge="1">
                    <mxGeometry width="50" height="50" relative="1" as="geometry">
                        <mxPoint x="669" y="709.5" as="sourcePoint"/>
                        <mxPoint x="650" y="758" as="targetPoint"/>
                    </mxGeometry>
                </mxCell>
                <mxCell id="167" value="OrderID" style="ellipse;whiteSpace=wrap;html=1;align=center;fontStyle=4;fontSize=18;" parent="1" vertex="1">
                    <mxGeometry x="-306" y="1057" width="120" height="82" as="geometry"/>
                </mxCell>
                <mxCell id="169" style="edgeStyle=none;html=1;" edge="1" parent="1" source="168" target="105">
                    <mxGeometry relative="1" as="geometry"/>
                </mxCell>
                <mxCell id="168" value="ảnh" style="ellipse;whiteSpace=wrap;html=1;fontSize=18;" vertex="1" parent="1">
                    <mxGeometry x="809" y="29" width="144" height="96" as="geometry"/>
                </mxCell>
            </root>
        </mxGraphModel>
    </diagram>
</mxfile>